<svg xmlns="http://www.w3.org/2000/svg" viewBox="0 0 1200 300" role="img" aria-label="abap_wiki — Your SAP system, finally documented!">
  <defs>
    <radialGradient id="bgA" cx="50%" cy="35%" r="90%">
      <stop offset="0%" stop-color="#27354D"></stop>
      <stop offset="60%" stop-color="#1E293B"></stop>
      <stop offset="100%" stop-color="#172032"></stop>
    </radialGradient>
    <linearGradient id="ulA" x1="0" y1="0" x2="1" y2="0">
      <stop offset="0" stop-color="#6366F1" stop-opacity="0"></stop>
      <stop offset="0.5" stop-color="#818CF8"></stop>
      <stop offset="1" stop-color="#6366F1" stop-opacity="0"></stop>
    </linearGradient>
  </defs>
  <rect width="1200" height="300" rx="20" fill="url(#bgA)"></rect>

  
  <g stroke="#6366F1" stroke-width="1.5" opacity="0.45" fill="none">
    <line x1="80" y1="72" x2="165" y2="132"></line>
    <line x1="165" y1="132" x2="108" y2="212"></line>
    <line x1="165" y1="132" x2="248" y2="82"></line>
    <line x1="165" y1="132" x2="268" y2="172"></line>
    <line x1="268" y1="172" x2="188" y2="242"></line>
    <line x1="248" y1="82" x2="345" y2="118"></line>
    <line x1="268" y1="172" x2="358" y2="222"></line>
    <line x1="345" y1="118" x2="358" y2="222"></line>
    <line x1="48" y1="150" x2="80" y2="72"></line>
    <line x1="48" y1="150" x2="165" y2="132"></line>
    <line x1="300" y1="40" x2="248" y2="82"></line>
  </g>
  <g stroke="#6366F1" stroke-width="1.5" opacity="0.15" fill="none">
    <line x1="345" y1="118" x2="430" y2="150"></line>
    <line x1="358" y1="222" x2="430" y2="150"></line>
  </g>
  <g fill="#818CF8">
    <circle cx="165" cy="132" r="16" opacity="0.18"></circle>
    <circle cx="80" cy="72" r="6"></circle>
    <circle cx="165" cy="132" r="9"></circle>
    <circle cx="108" cy="212" r="5"></circle>
    <circle cx="248" cy="82" r="6"></circle>
    <circle cx="268" cy="172" r="7"></circle>
    <circle cx="188" cy="242" r="5"></circle>
    <circle cx="345" cy="118" r="4"></circle>
    <circle cx="358" cy="222" r="4"></circle>
    <circle cx="48" cy="150" r="3"></circle>
    <circle cx="300" cy="40" r="3"></circle>
    <circle cx="430" cy="150" r="2.5" opacity="0.4"></circle>
  </g>

  
  <g stroke="#6366F1" stroke-width="1.5" opacity="0.45" fill="none">
    <line x1="1120" y1="72" x2="1035" y2="132"></line>
    <line x1="1035" y1="132" x2="1092" y2="212"></line>
    <line x1="1035" y1="132" x2="952" y2="82"></line>
    <line x1="1035" y1="132" x2="932" y2="172"></line>
    <line x1="932" y1="172" x2="1012" y2="242"></line>
    <line x1="952" y1="82" x2="855" y2="118"></line>
    <line x1="932" y1="172" x2="842" y2="222"></line>
    <line x1="855" y1="118" x2="842" y2="222"></line>
    <line x1="1152" y1="150" x2="1120" y2="72"></line>
    <line x1="1152" y1="150" x2="1035" y2="132"></line>
    <line x1="900" y1="40" x2="952" y2="82"></line>
  </g>
  <g stroke="#6366F1" stroke-width="1.5" opacity="0.15" fill="none">
    <line x1="855" y1="118" x2="770" y2="150"></line>
    <line x1="842" y1="222" x2="770" y2="150"></line>
  </g>
  <g fill="#818CF8">
    <circle cx="1035" cy="132" r="16" opacity="0.18"></circle>
    <circle cx="1120" cy="72" r="6"></circle>
    <circle cx="1035" cy="132" r="9"></circle>
    <circle cx="1092" cy="212" r="5"></circle>
    <circle cx="952" cy="82" r="6"></circle>
    <circle cx="932" cy="172" r="7"></circle>
    <circle cx="1012" cy="242" r="5"></circle>
    <circle cx="855" cy="118" r="4"></circle>
    <circle cx="842" cy="222" r="4"></circle>
    <circle cx="1152" cy="150" r="3"></circle>
    <circle cx="900" cy="40" r="3"></circle>
    <circle cx="770" cy="150" r="2.5" opacity="0.4"></circle>
  </g>

  <text x="600" y="162" text-anchor="middle" font-family="ui-monospace, SFMono-Regular, Menlo, Consolas, monospace" font-size="112" font-weight="700" fill="#F8FAFC">abap<tspan fill="#818CF8">_wiki</tspan></text>
  <rect x="420" y="188" width="360" height="3" fill="url(#ulA)"></rect>
  <text x="600" y="234" text-anchor="middle" font-family="system-ui, -apple-system, Segoe UI, sans-serif" font-size="27" letter-spacing="0.5" fill="#94A3B8">Your SAP system, finally documented!</text>
</svg>